<svg width="18" height="9" viewBox="0 0 18 9" fill="none" xmlns="http://www.w3.org/2000/svg">
<path d="M12.5422 0.340068C12.3486 0.415815 12.2449 0.500653 12.1516 0.655178C12.0548 0.812734 12.0514 1.12481 12.1412 1.27631C12.1758 1.33388 12.8187 1.92471 13.5723 2.58523L14.9446 3.79114H7.82043C0.112106 3.79114 0.561471 3.78205 0.302223 3.94869C0.153587 4.04565 0.0291473 4.23957 0.00495079 4.42136C-0.0330724 4.71223 0.15013 4.99098 0.478512 5.14248C0.596038 5.19702 0.862199 5.20005 7.76513 5.2152L14.9273 5.23035L13.5758 6.41201C12.8187 7.07253 12.1931 7.64822 12.1516 7.71488C12.0583 7.8694 12.0514 8.18451 12.1378 8.32389C12.3383 8.65415 12.7358 8.79656 13.1333 8.68445C13.3096 8.63597 13.434 8.52992 15.4493 6.76348C17.4645 4.99704 17.5855 4.88797 17.6408 4.73344C17.7099 4.54862 17.6961 4.33955 17.6028 4.17897C17.5716 4.12443 16.6107 3.25787 15.4665 2.25194C13.8799 0.858183 13.3476 0.409756 13.2197 0.352187C13.0054 0.25826 12.76 0.2522 12.5422 0.340068Z" fill="#BBB8B8"/>
</svg>
