<svg width="75" height="71" viewBox="0 0 75 71" fill="none" xmlns="http://www.w3.org/2000/svg">
<g clip-path="url(#clip0)">
<path d="M0.234379 52.834C0.439457 53.3609 1.81641 54.7338 9.50684 62.0002C18.0469 70.0848 18.5742 70.5701 19.3213 70.792C20.2148 71.0693 21.2256 71.0139 22.002 70.6395C22.2656 70.5147 26.4551 66.6596 31.3184 62.0695C38.0566 55.7045 40.2246 53.569 40.5029 53.0559C41.3233 51.4889 40.6787 49.5891 39.0381 48.7709C38.2764 48.3826 36.7676 48.3688 36.0352 48.7293C35.7568 48.868 32.9004 51.4473 29.6924 54.4703L23.877 59.9756L23.877 31.3953C23.877 0.4715 23.9209 2.27423 23.1152 1.2342C22.6465 0.637905 21.709 0.138683 20.8301 0.0416145C19.4238 -0.110928 18.0762 0.624035 17.3438 1.94142C17.0801 2.41291 17.0654 3.48068 16.9922 31.1734L16.919 59.9063L11.2061 54.4842C8.0127 51.4473 5.2295 48.9373 4.90723 48.7709C4.16016 48.3965 2.63672 48.3688 1.96289 48.7154C1.36231 49.0066 0.644535 49.7 0.351566 50.2408C0.0146523 50.851 -0.0439415 52.0852 0.234379 52.834Z" fill="#BBB8B8"/>
<path d="M34.4385 20.6614C34.8047 21.438 35.2148 21.854 35.9619 22.2284C36.7236 22.6167 38.2324 22.6306 38.9648 22.27C39.2432 22.1314 42.0996 19.5521 45.293 16.529L51.123 11.0238V39.604C51.123 70.5279 51.0791 68.7251 51.8848 69.7652C52.3535 70.3614 53.291 70.8607 54.1699 70.9577C55.5762 71.1103 56.9238 70.3753 57.6562 69.0579C57.9199 68.5864 57.9346 67.5187 58.0078 39.8259L58.0811 11.0931L63.7939 16.5152C66.9873 19.5521 69.7705 22.062 70.0928 22.2284C70.8398 22.6029 72.3633 22.6306 73.0371 22.2839C74.6338 21.4796 75.3223 19.8849 74.7803 18.2902C74.5459 17.5829 74.0332 17.0837 65.4932 8.99915C56.9531 0.91457 56.4258 0.429218 55.6787 0.207348C54.7852 -0.0699959 53.7744 -0.0145302 52.998 0.359882C52.7344 0.484692 48.5449 4.33977 43.6816 8.92981C36.9434 15.2948 34.7754 17.4304 34.4971 17.9435C34.043 18.8032 34.0137 19.7878 34.4385 20.6614Z" fill="#BBB8B8"/>
</g>
<defs>
<clipPath id="clip0">
<rect width="71" height="75" fill="white" transform="translate(0 71) rotate(-90)"/>
</clipPath>
</defs>
</svg>
