<svg width="10" height="10" viewBox="0 0 10 10" fill="none" xmlns="http://www.w3.org/2000/svg">
<path d="M7.54839 0.0110865C7.43695 0.034544 7.24145 0.128373 7.15543 0.198745C7.0479 0.28671 0.965787 6.43058 0.942326 6.47554C0.909091 6.53418 0 9.73024 0 9.78106C0 9.88467 0.121212 10 0.228739 10C0.248289 10 0.999022 9.78888 1.89443 9.53281L3.52493 9.06366L3.79081 8.80172C4.57087 8.03349 9.13587 3.51014 9.45455 3.18955C9.92962 2.71454 10 2.59335 10 2.25908C10 2.08511 9.96676 1.95609 9.88661 1.80948C9.81427 1.6746 8.348 0.2007 8.20919 0.120554C8.16031 0.0931873 8.07625 0.0560465 8.02346 0.0404081C7.90225 0.00326729 7.65982 -0.0123711 7.54839 0.0110865ZM7.91398 0.490006C8.00587 0.529102 9.44672 1.96 9.50538 2.07338C9.56207 2.18089 9.56207 2.35682 9.50538 2.46433C9.48387 2.50734 9.23363 2.77319 8.94624 3.06054L8.4262 3.57856L7.42522 2.57575L6.42229 1.57491L6.94037 1.05494C7.27273 0.722626 7.48583 0.521283 7.53666 0.497826C7.63245 0.452866 7.81427 0.448956 7.91398 0.490006ZM6.5259 2.32359L6.94037 2.738L4.75269 4.9254L2.565 7.11279L2.39883 6.78244C2.30694 6.60064 2.2131 6.43449 2.18964 6.41298C2.15249 6.37975 2.11339 6.37193 1.9218 6.36802C1.79863 6.36411 1.70088 6.35434 1.70479 6.34457C1.71261 6.32697 6.08602 1.91113 6.09971 1.90917C6.10557 1.90722 6.29717 2.09488 6.5259 2.32359ZM8.08993 3.90109C8.08016 3.92064 3.67155 8.28957 3.65591 8.29543C3.64614 8.29934 3.63636 8.2016 3.63245 8.07845C3.62854 7.88689 3.62072 7.84779 3.58749 7.81065C3.56598 7.78719 3.3998 7.69336 3.21799 7.60149L2.88759 7.43533L5.07527 5.24794L7.26295 3.06054L7.67742 3.47495C7.90616 3.70366 8.09189 3.89523 8.08993 3.90109ZM2.12121 7.23985L2.33627 7.66404L2.76051 7.87907L3.18671 8.09409V8.39122V8.68834L3.08504 8.71962C3.02835 8.73526 2.78397 8.80563 2.54154 8.876L2.10166 9.00111L1.55034 8.44986L0.999022 7.89861L1.12414 7.45879C1.19453 7.2164 1.26491 6.97205 1.28055 6.91536L1.31183 6.81371H1.60899H1.90616L2.12121 7.23985ZM1.23167 8.77826C1.42913 8.9757 1.58749 9.14185 1.58358 9.14576C1.56403 9.1614 0.580645 9.43507 0.572825 9.42725C0.56305 9.41552 0.84653 8.41663 0.860215 8.41663C0.86608 8.41663 1.03226 8.57888 1.23167 8.77826Z" fill="black"/>
</svg>
