<svg width="147" height="24" viewBox="0 0 147 24" fill="none" xmlns="http://www.w3.org/2000/svg">
<path d="M2.096 23.16C1.69067 23.16 1.37067 23.0427 1.136 22.808C0.901333 22.552 0.784 22.2213 0.784 21.816V1.72C0.784 1.336 0.901333 1.02667 1.136 0.792C1.392 0.557332 1.72267 0.439999 2.128 0.439999H9.712C12.08 0.439999 13.9147 1.016 15.216 2.168C16.5387 3.32 17.2 4.952 17.2 7.064C17.2 9.176 16.5387 10.8187 15.216 11.992C13.8933 13.1653 12.0587 13.752 9.712 13.752H3.408V21.816C3.408 22.2213 3.29067 22.552 3.056 22.808C2.82133 23.0427 2.50133 23.16 2.096 23.16ZM9.456 11.576C12.8907 11.576 14.608 10.072 14.608 7.064C14.608 4.09867 12.8907 2.616 9.456 2.616H3.408V11.576H9.456ZM41.9762 21.112C42.1896 21.3467 42.2962 21.6133 42.2962 21.912C42.2962 22.2533 42.1682 22.5413 41.9123 22.776C41.6562 23.0107 41.3576 23.128 41.0163 23.128C40.6749 23.128 40.3656 22.9787 40.0882 22.68L32.7922 13.368L25.4642 22.68C25.2296 22.9787 24.9202 23.128 24.5362 23.128C24.2162 23.128 23.9282 23.0107 23.6722 22.776C23.4162 22.52 23.2882 22.232 23.2882 21.912C23.2882 21.592 23.3842 21.3253 23.5762 21.112L31.2562 11.48L23.9922 2.328C23.7789 2.09333 23.6722 1.816 23.6722 1.496C23.6722 1.176 23.7896 0.898666 24.0242 0.664C24.2802 0.429332 24.5682 0.311998 24.8882 0.311998C25.2509 0.311998 25.5602 0.471999 25.8162 0.792L32.7922 9.624L39.7362 0.792C39.9923 0.471999 40.3016 0.311998 40.6642 0.311998C40.9843 0.311998 41.2723 0.439999 41.5282 0.695999C41.7843 0.930665 41.9123 1.21867 41.9123 1.56C41.9123 1.85867 41.8163 2.11467 41.6243 2.328L34.3282 11.48L41.9762 21.112ZM91.9313 21.368C92.0806 21.6027 92.1553 21.848 92.1553 22.104C92.1553 22.424 92.0273 22.6907 91.7713 22.904C91.5366 23.096 91.2593 23.192 90.9393 23.192C90.4486 23.192 90.0646 22.9787 89.7873 22.552L85.4993 15.768C84.9446 14.8933 84.3686 14.296 83.7713 13.976C83.1739 13.6347 82.3633 13.464 81.3393 13.464H77.3073V21.816C77.3073 22.2213 77.1899 22.552 76.9553 22.808C76.7206 23.0427 76.4113 23.16 76.0273 23.16C75.6219 23.16 75.3019 23.0427 75.0673 22.808C74.8326 22.552 74.7153 22.2213 74.7153 21.816V1.72C74.7153 1.336 74.8326 1.02667 75.0673 0.792C75.3233 0.557332 75.6539 0.439999 76.0593 0.439999H83.9953C86.4486 0.439999 88.3153 0.983999 89.5953 2.072C90.8966 3.16 91.5473 4.76 91.5473 6.872C91.5473 8.664 91.0246 10.104 89.9793 11.192C88.9553 12.28 87.4833 12.9413 85.5633 13.176C86.0966 13.3467 86.5766 13.624 87.0033 14.008C87.4299 14.392 87.8566 14.9253 88.2833 15.608L91.9313 21.368ZM83.7713 11.288C85.5206 11.288 86.8219 10.9253 87.6753 10.2C88.5499 9.47467 88.9873 8.376 88.9873 6.904C88.9873 5.45333 88.5606 4.376 87.7073 3.672C86.8539 2.968 85.5419 2.616 83.7713 2.616H77.3073V11.288H83.7713ZM102.797 23C102.391 23 102.061 22.8827 101.805 22.648C101.57 22.4133 101.453 22.104 101.453 21.72V1.72C101.453 1.336 101.57 1.02667 101.805 0.792C102.061 0.557332 102.391 0.439999 102.797 0.439999H114.765C115.149 0.439999 115.447 0.535999 115.661 0.727999C115.874 0.919999 115.981 1.18667 115.981 1.528C115.981 1.86933 115.874 2.136 115.661 2.328C115.447 2.52 115.149 2.616 114.765 2.616H104.045V10.456H114.125C114.509 10.456 114.807 10.552 115.021 10.744C115.234 10.936 115.341 11.2027 115.341 11.544C115.341 11.8853 115.234 12.152 115.021 12.344C114.807 12.536 114.509 12.632 114.125 12.632H104.045V20.824H114.765C115.149 20.824 115.447 20.92 115.661 21.112C115.874 21.2827 115.981 21.5493 115.981 21.912C115.981 22.2533 115.874 22.52 115.661 22.712C115.447 22.904 115.149 23 114.765 23H102.797ZM144.91 0.279999C145.315 0.279999 145.624 0.407999 145.838 0.664C146.072 0.898666 146.19 1.21867 146.19 1.624V21.88C146.19 22.264 146.083 22.5733 145.87 22.808C145.656 23.0427 145.358 23.16 144.974 23.16C144.59 23.16 144.302 23.0427 144.11 22.808C143.918 22.5733 143.822 22.264 143.822 21.88V5.528L136.878 18.84C136.579 19.4587 136.142 19.768 135.566 19.768C135.011 19.768 134.574 19.4587 134.254 18.84L127.278 5.688V21.88C127.278 22.264 127.171 22.5733 126.958 22.808C126.766 23.0427 126.478 23.16 126.094 23.16C125.71 23.16 125.411 23.0427 125.198 22.808C124.984 22.5733 124.878 22.264 124.878 21.88V1.624C124.878 1.21867 124.995 0.898666 125.23 0.664C125.464 0.407999 125.784 0.279999 126.19 0.279999C126.723 0.279999 127.15 0.589332 127.47 1.208L135.598 16.792L143.63 1.208C143.8 0.866666 143.982 0.631999 144.174 0.504C144.387 0.354666 144.632 0.279999 144.91 0.279999Z" fill="#BBB8B8"/>
<path d="M64.1997 20.792C64.5837 20.792 64.8824 20.888 65.0957 21.08C65.3091 21.272 65.4157 21.5387 65.4157 21.88C65.4157 22.6267 65.0104 23 64.1997 23H51.6557C51.2931 23 50.9944 22.8933 50.7597 22.68C50.5251 22.4453 50.4077 22.168 50.4077 21.848C50.4077 21.4427 50.5571 21.0907 50.8557 20.792L58.5677 12.312C59.6344 11.1173 60.4024 10.0507 60.8717 9.112C61.3624 8.152 61.6077 7.192 61.6077 6.232C61.6077 4.99467 61.2451 4.04533 60.5197 3.384C59.8157 2.72267 58.8131 2.392 57.5117 2.392C56.4877 2.392 55.5064 2.584 54.5677 2.968C53.6291 3.33067 52.6904 3.896 51.7517 4.664C51.4317 4.92 51.1331 5.048 50.8557 5.048C50.6211 5.048 50.4184 4.94133 50.2477 4.728C50.0771 4.49333 49.9917 4.216 49.9917 3.896C49.9917 3.448 50.1624 3.08533 50.5037 2.808C51.3784 1.99733 52.4451 1.35733 53.7037 0.887999C54.9624 0.418665 56.2531 0.183998 57.5757 0.183998C59.6024 0.183998 61.2131 0.717332 62.4077 1.784C63.6237 2.85067 64.2317 4.29067 64.2317 6.104C64.2317 7.40533 63.9331 8.65333 63.3357 9.848C62.7597 11.0427 61.7997 12.376 60.4557 13.848L54.0557 20.792H64.1997Z" fill="#656565"/>
</svg>
